<?xml version="1.0" encoding="utf-8"?>
<!-- Generator: Adobe Illustrator 24.3.0, SVG Export Plug-In . SVG Version: 6.00 Build 0)  -->
<svg version="1.1" id="Layer_1" xmlns="http://www.w3.org/2000/svg" xmlns:xlink="http://www.w3.org/1999/xlink" x="0px" y="0px"
	 viewBox="0 0 175 175.5" style="enable-background:new 0 0 175 175.5;" xml:space="preserve">
<style type="text/css">
	.st0{fill:#FFFFFF;}
	.st1{fill:#848585;}
</style>
<g>
	<path class="st1" d="M50.5,167.7c-31.1-15.1-50.7-46.8-50-81c0.6-32.6,19.6-62.3,49-77C49.8,62.4,50.2,115.1,50.5,167.7z"/>
	<path class="st1" d="M144.5,21.7c-15.3,12-35.4,30.5-54,57c-17.4,24.8-27.8,48.3-34,66c0-46,0-92,0-138c7.2-2.9,27.4-10,52-4
		C126.5,7.1,138.6,16.5,144.5,21.7z"/>
	<path class="st1" d="M149.5,25.7c4.1,4.2,26.4,27.4,26,64c-0.4,37.2-23.8,60.1-28,64c-20-19.7-40-39.3-60-59
		c6.4-10.9,15.2-23.7,27-37C126.8,43.9,139.1,33.5,149.5,25.7z"/>
	<path class="st1" d="M84.5,100.7c-5.6,8.8-11.6,19.8-17,33c-5.4,13.3-8.8,25.5-11,35.8c7.2,2.9,24.3,8.7,46,5.2
		c20.3-3.3,34-13.1,40-18C123.2,138.1,103.8,119.4,84.5,100.7z"/>
</g>
</svg>
